#N canvas 2 66 1278 935 10;
#X obj 910 629 s comctl;
#X msg 920 543 close;
#X msg 931 584 devices;
#N canvas 307 43 789 479 bauds 0;
#X msg 319 274 baud 57600;
#X msg 357 312 baud 230400;
#X msg 338 293 baud 115200;
#X msg 300 255 baud 38400;
#X msg 281 236 baud 19200;
#X msg 262 217 baud 9600;
#X msg 243 198 baud 4800;
#X msg 224 179 baud 2400;
#X obj 431 403 s comctl;
#X msg 205 160 baud 1800;
#X msg 186 141 baud 1200;
#X msg 167 122 baud 600;
#X msg 148 103 baud 300;
#X msg 129 84 baud 200;
#X msg 91 46 baud 134;
#X msg 72 27 baud 110;
#X msg 53 8 baud 75;
#X msg 34 -11 baud 50;
#X msg 15 -30 baud 0;
#X msg 110 65 baud 150;
#X text 368 255 this is a special baud rate that can be configured
;
#X text 12 -48 standard baud rates for linux:;
#X text 64 -31 0 deasserts control lines and resets the serial port
;
#X text 435 312 won't work with standard setup. See setserial;
#X msg 431 231 baud \$1;
#X text 518 269 on-the-fly with setserial:;
#X text 519 298 gives 14400 baud instead of 38400;
#X text 517 284 "setserial /dev/ttyS0 spd_cust divisor 8";
#X msg 419 163 115200;
#X floatatom 392 104 7 1 115200 1 divisor - -, f 7;
#X obj 431 192 / 1;
#X obj 392 123 sel 0;
#X floatatom 431 212 7 0 0 0 - - -, f 7;
#X text 482 103 (1-115200);
#X obj 419 143 t b f;
#X text 390 86 On Windows some other baud rates might work:;
#X connect 0 0 8 0;
#X connect 1 0 8 0;
#X connect 2 0 8 0;
#X connect 3 0 8 0;
#X connect 4 0 8 0;
#X connect 5 0 8 0;
#X connect 6 0 8 0;
#X connect 7 0 8 0;
#X connect 9 0 8 0;
#X connect 10 0 8 0;
#X connect 11 0 8 0;
#X connect 12 0 8 0;
#X connect 13 0 8 0;
#X connect 14 0 8 0;
#X connect 15 0 8 0;
#X connect 16 0 8 0;
#X connect 17 0 8 0;
#X connect 18 0 8 0;
#X connect 19 0 8 0;
#X connect 24 0 8 0;
#X connect 28 0 30 0;
#X connect 29 0 31 0;
#X connect 30 0 32 0;
#X connect 31 1 34 0;
#X connect 32 0 24 0;
#X connect 34 0 28 0;
#X connect 34 1 30 1;
#X restore 9 11 pd bauds;
#X msg 938 602 ports;
#X obj 912 720 comport 0 9600;
#X msg 945 658 print 1c0w;
#X msg 9 70 \; pd dsp \$1;
#X msg 498 43 start;
#X msg 505 73 stop;
#X obj 581 82 readsf~ 4;
#X obj 569 118 dac~ 1 2 3 4;
#X obj 9 41 loadbang;
#X text 89 33 MASTER CLOCK;
#X floatatom 82 122 5 0 0 0 - - -, f 5;
#X obj 82 12 tgl 15 0 empty empty empty 17 7 0 10 -262144 -1 -1 1 1
;
#X msg 925 563 open 0;
#X msg 888 522 devicename /dev/ttyACM1;
#X floatatom 109 660 5 0 0 0 - - -, f 5;
#X floatatom 390 654 5 0 0 0 - - -, f 5;
#X msg 145 691 print 1c\$1w;
#X obj 145 635 line;
#X obj 145 660 int \$1;
#X obj 430 628 line;
#X obj 429 654 int \$1;
#X msg 429 684 print 2c\$1w;
#X obj 82 58 metro 100;
#X msg 946 683 print 2c0w;
#X obj 82 91 counter;
#X obj 147 151 sel 10;
#X text 197 565 Zonsopkomst 1;
#X text 213 587 Zonsopkomst 2;
#X text 206 610 Zonsondergang;
#X floatatom 725 672 5 0 0 0 - - -, f 5;
#X obj 757 588 tgl 15 0 empty empty empty 17 7 0 10 -262144 -1 -1 0
1;
#X msg 761 671 print 1c\$1w;
#X text 146 130 Iedere 1/10s een puls. Sel 10 = 1s;
#X obj 157 63 bng 15 250 50 0 empty empty empty 17 7 0 10 -262144 -1
-1;
#X text 175 62 Reset naar 0 en wacht;
#X text 605 24 Open eerst \, dan start.;
#X obj 760 612 metro 100;
#X text 491 540 Maanopgang;
#X text 489 596 Maanonder;
#X text 782 586 Random zon snel;
#X obj 147 183 s bang-ochtend;
#X obj 36 529 r bang-ochtend;
#X obj 84 469 s reset-bang;
#X obj 177 37 r reset-bang;
#X text 139 447 Reset na **sec;
#X obj 581 5 r reset-bang;
#X obj 481 17 r bang-ochtend;
#X text 190 151 OCHTEND - fase 1;
#X obj 148 394 s bang-nacht;
#X text 196 221 MIDDAG - fase 2;
#X text 198 295 AVOND - fase 3;
#X text 197 363 NACHT - fase 4;
#X obj 36 557 r bang-middag;
#X obj 37 587 r bang-avond;
#X obj 37 617 r bang-nacht;
#X obj 306 536 r bang-ochtend;
#X obj 306 564 r bang-middag;
#X obj 306 594 r bang-avond;
#X obj 307 624 r bang-nacht;
#X text 503 567 Maanopgang;
#X obj 146 250 s bang-middag;
#X obj 148 325 s bang-avond;
#X obj 760 639 random 35;
#X obj 775 543 r bang-ochtend;
#X obj 693 544 r bang-nacht;
#X msg 581 45 open Test-Sequentie_mixdown.wav;
#X obj 83 447 sel 410;
#X obj 146 220 sel 100;
#X obj 148 294 sel 200;
#X obj 148 364 sel 300;
#X msg 140 564 75 8000;
#X msg 148 588 255 8000;
#X msg 444 567 255 6000;
#X msg 160 609 0 8000;
#X msg 433 539 155 8000;
#X msg 441 597 0 7000;
#X connect 1 0 0 0;
#X connect 2 0 0 0;
#X connect 4 0 0 0;
#X connect 6 0 5 0;
#X connect 8 0 10 0;
#X connect 9 0 10 0;
#X connect 10 0 11 0;
#X connect 10 1 11 1;
#X connect 10 2 11 2;
#X connect 10 3 11 3;
#X connect 12 0 7 0;
#X connect 14 0 29 0;
#X connect 14 0 70 0;
#X connect 14 0 71 0;
#X connect 14 0 72 0;
#X connect 14 0 73 0;
#X connect 15 0 26 0;
#X connect 16 0 0 0;
#X connect 17 0 0 0;
#X connect 20 0 5 0;
#X connect 21 0 18 0;
#X connect 21 0 22 0;
#X connect 22 0 20 0;
#X connect 23 0 19 0;
#X connect 23 0 24 0;
#X connect 24 0 25 0;
#X connect 25 0 5 0;
#X connect 26 0 28 0;
#X connect 27 0 5 0;
#X connect 28 0 14 0;
#X connect 29 0 44 0;
#X connect 34 0 40 0;
#X connect 35 0 5 0;
#X connect 37 0 28 2;
#X connect 40 0 66 0;
#X connect 45 0 74 0;
#X connect 47 0 37 0;
#X connect 49 0 69 0;
#X connect 50 0 8 0;
#X connect 56 0 75 0;
#X connect 57 0 77 0;
#X connect 59 0 79 0;
#X connect 61 0 78 0;
#X connect 62 0 76 0;
#X connect 66 0 33 0;
#X connect 66 0 35 0;
#X connect 67 0 34 0;
#X connect 68 0 34 0;
#X connect 69 0 10 0;
#X connect 70 0 46 0;
#X connect 71 0 64 0;
#X connect 72 0 65 0;
#X connect 73 0 52 0;
#X connect 74 0 21 0;
#X connect 75 0 21 0;
#X connect 77 0 21 0;
#X connect 78 0 23 0;
#X connect 79 0 23 0;
